<svg width="20" height="20" viewBox="0 0 20 20" fill="none" xmlns="http://www.w3.org/2000/svg">
<g clip-path="url(#clip0_17700_38176)">
<path d="M3.33301 5.00004C3.33301 4.55801 3.5086 4.13409 3.82116 3.82153C4.13372 3.50897 4.55765 3.33337 4.99967 3.33337H14.9997C15.4417 3.33337 15.8656 3.50897 16.1782 3.82153C16.4907 4.13409 16.6663 4.55801 16.6663 5.00004V15C16.6663 15.4421 16.4907 15.866 16.1782 16.1786C15.8656 16.4911 15.4417 16.6667 14.9997 16.6667H4.99967C4.55765 16.6667 4.13372 16.4911 3.82116 16.1786C3.5086 15.866 3.33301 15.4421 3.33301 15V5.00004Z" stroke="#010663" stroke-width="1.5" stroke-linecap="round" stroke-linejoin="round"/>
<path d="M6.66699 9.16663V13.3333" stroke="#010663" stroke-width="1.5" stroke-linecap="round" stroke-linejoin="round"/>
<path d="M6.66699 6.66663V6.67496" stroke="#010663" stroke-width="1.5" stroke-linecap="round" stroke-linejoin="round"/>
<path d="M10 13.3333V9.16663" stroke="#010663" stroke-width="1.5" stroke-linecap="round" stroke-linejoin="round"/>
<path d="M13.3333 13.3333V10.8333C13.3333 10.3913 13.1577 9.96734 12.8452 9.65478C12.5326 9.34222 12.1087 9.16663 11.6667 9.16663C11.2246 9.16663 10.8007 9.34222 10.4882 9.65478C10.1756 9.96734 10 10.3913 10 10.8333" stroke="#010663" stroke-width="1.5" stroke-linecap="round" stroke-linejoin="round"/>
</g>
<defs>
<clipPath id="clip0_17700_38176">
<rect width="20" height="20" fill="white"/>
</clipPath>
</defs>
</svg>
